<svg width="120" height="28" viewBox="0 0 120 28" fill="none" xmlns="http://www.w3.org/2000/svg">
<path d="M41.2656 23V5.53906H47.8164C49.1602 5.53906 50.2852 5.77344 51.1914 6.24219C52.1055 6.71094 52.7969 7.36719 53.2656 8.21094C53.7344 9.04688 53.9688 10.0195 53.9688 11.1289C53.9688 12.2461 53.7305 13.2148 53.2539 14.0352C52.7852 14.8555 52.0898 15.4883 51.168 15.9336C50.2461 16.3789 49.1133 16.6016 47.7695 16.6016H43.1172V13.9883H47.3359C48.125 13.9883 48.7695 13.8789 49.2695 13.6602C49.7773 13.4414 50.1484 13.1211 50.3828 12.6992C50.625 12.2695 50.7461 11.7461 50.7461 11.1289C50.7461 10.5117 50.625 9.98438 50.3828 9.54688C50.1406 9.10156 49.7695 8.76562 49.2695 8.53906C48.7695 8.30469 48.1211 8.1875 47.3242 8.1875H44.4297V23H41.2656ZM51.0742 23L46.8438 15.0781H50.2891L54.6133 23H51.0742ZM61.375 23.2578C60.0938 23.2578 58.9844 22.9766 58.0469 22.4141C57.1094 21.8516 56.3828 21.0625 55.8672 20.0469C55.3594 19.0312 55.1055 17.8516 55.1055 16.5078C55.1055 15.1562 55.3594 13.9727 55.8672 12.957C56.3828 11.9336 57.1094 11.1406 58.0469 10.5781C58.9844 10.0156 60.0938 9.73438 61.375 9.73438C62.6562 9.73438 63.7656 10.0156 64.7031 10.5781C65.6406 11.1406 66.3672 11.9336 66.8828 12.957C67.3984 13.9727 67.6562 15.1562 67.6562 16.5078C67.6562 17.8516 67.3984 19.0312 66.8828 20.0469C66.3672 21.0625 65.6406 21.8516 64.7031 22.4141C63.7656 22.9766 62.6562 23.2578 61.375 23.2578ZM61.375 20.7734C62.0859 20.7734 62.6719 20.5859 63.1328 20.2109C63.5938 19.8281 63.9375 19.3125 64.1641 18.6641C64.3984 18.0156 64.5156 17.2969 64.5156 16.5078C64.5156 15.7031 64.3984 14.9766 64.1641 14.3281C63.9375 13.6797 63.5938 13.168 63.1328 12.793C62.6719 12.4102 62.0859 12.2188 61.375 12.2188C60.6797 12.2188 60.0977 12.4102 59.6289 12.793C59.1602 13.168 58.8086 13.6797 58.5742 14.3281C58.3477 14.9766 58.2344 15.7031 58.2344 16.5078C58.2344 17.2969 58.3477 18.0156 58.5742 18.6641C58.8086 19.3125 59.1602 19.8281 59.6289 20.2109C60.0977 20.5859 60.6797 20.7734 61.375 20.7734ZM76.3047 23.2344C75.5625 23.2344 74.9414 23.1094 74.4414 22.8594C73.9492 22.6016 73.5508 22.2969 73.2461 21.9453C72.9492 21.5859 72.7227 21.2461 72.5664 20.9258H72.3789V23H69.3555V5.53906H72.4375V12.0664H72.5664C72.7227 11.7539 72.9453 11.418 73.2344 11.0586C73.5234 10.6914 73.9141 10.3789 74.4062 10.1211C74.9062 9.86328 75.543 9.73438 76.3164 9.73438C77.3242 9.73438 78.2344 9.99219 79.0469 10.5078C79.8594 11.0234 80.5039 11.7812 80.9805 12.7812C81.4648 13.7812 81.707 15.0117 81.707 16.4727C81.707 17.9102 81.4727 19.1328 81.0039 20.1406C80.5352 21.1484 79.8906 21.918 79.0703 22.4492C78.2578 22.9727 77.3359 23.2344 76.3047 23.2344ZM75.4609 20.7031C76.1406 20.7031 76.707 20.5195 77.1602 20.1523C77.6211 19.7852 77.9688 19.2812 78.2031 18.6406C78.4375 18 78.5547 17.2734 78.5547 16.4609C78.5547 15.6484 78.4375 14.9258 78.2031 14.293C77.9688 13.6602 77.625 13.1641 77.1719 12.8047C76.7188 12.4453 76.1484 12.2656 75.4609 12.2656C74.7969 12.2656 74.2344 12.4375 73.7734 12.7812C73.3203 13.125 72.9727 13.6133 72.7305 14.2461C72.4961 14.8711 72.3789 15.6094 72.3789 16.4609C72.3789 17.3047 72.4961 18.0469 72.7305 18.6875C72.9727 19.3203 73.3242 19.8164 73.7852 20.1758C74.2461 20.5273 74.8047 20.7031 75.4609 20.7031ZM89.2188 23.2578C87.9062 23.2578 86.7734 22.9844 85.8203 22.4375C84.8672 21.8828 84.1328 21.1016 83.6172 20.0938C83.1094 19.0859 82.8555 17.8984 82.8555 16.5312C82.8555 15.1797 83.1094 13.9961 83.6172 12.9805C84.125 11.957 84.8398 11.1602 85.7617 10.5898C86.6836 10.0195 87.7695 9.73438 89.0195 9.73438C89.8242 9.73438 90.5859 9.86328 91.3047 10.1211C92.0312 10.3789 92.6719 10.7773 93.2266 11.3164C93.7891 11.8555 94.2305 12.543 94.5508 13.3789C94.8711 14.207 95.0312 15.1953 95.0312 16.3438V17.3047H84.2969V15.2305H93.4961L92.0547 15.8398C92.0547 15.0977 91.9414 14.4531 91.7148 13.9062C91.4883 13.3516 91.1523 12.918 90.707 12.6055C90.2617 12.293 89.707 12.1367 89.043 12.1367C88.3789 12.1367 87.8125 12.293 87.3438 12.6055C86.875 12.918 86.5195 13.3398 86.2773 13.8711C86.0352 14.3945 85.9141 14.9805 85.9141 15.6289V17.0703C85.9141 17.8672 86.0508 18.5508 86.3242 19.1211C86.6055 19.6836 86.9961 20.1133 87.4961 20.4102C88.0039 20.707 88.5938 20.8555 89.2656 20.8555C89.7031 20.8555 90.1016 20.793 90.4609 20.668C90.8281 20.543 91.1406 20.3555 91.3984 20.1055C91.6641 19.8477 91.8672 19.5312 92.0078 19.1562L94.8906 19.4961C94.7031 20.2539 94.3555 20.918 93.8477 21.4883C93.3477 22.0508 92.7031 22.4883 91.9141 22.8008C91.1328 23.1055 90.2344 23.2578 89.2188 23.2578ZM96.707 23V9.89844H99.6953V12.1016H99.8359C100.07 11.3359 100.48 10.75 101.066 10.3438C101.652 9.92969 102.32 9.72266 103.07 9.72266C103.234 9.72266 103.422 9.73047 103.633 9.74609C103.852 9.76172 104.031 9.78125 104.172 9.80469V12.6406C104.039 12.5938 103.832 12.5547 103.551 12.5234C103.27 12.4922 103 12.4766 102.742 12.4766C102.172 12.4766 101.664 12.5977 101.219 12.8398C100.773 13.082 100.422 13.4141 100.164 13.8359C99.9141 14.2578 99.7891 14.75 99.7891 15.3125V23H96.707ZM112.562 9.89844V12.2891H105.051V9.89844H112.562ZM106.891 6.78125H109.973V19.0625C109.973 19.5781 110.086 19.9609 110.312 20.2109C110.539 20.4531 110.898 20.5742 111.391 20.5742C111.523 20.5742 111.672 20.5625 111.836 20.5391C112 20.5156 112.148 20.4883 112.281 20.457L112.809 22.8711C112.48 22.9727 112.148 23.0469 111.812 23.0938C111.477 23.1484 111.141 23.1758 110.805 23.1758C109.586 23.1758 108.629 22.8555 107.934 22.2148C107.238 21.5664 106.891 20.6836 106.891 19.5664V6.78125Z" fill="black"/>
<path d="M116.512 23.1992C115.98 23.1992 115.531 23.0195 115.164 22.6602C114.805 22.293 114.625 21.8477 114.625 21.3242C114.625 20.8008 114.805 20.3594 115.164 20C115.531 19.6328 115.98 19.4492 116.512 19.4492C117.043 19.4492 117.488 19.6328 117.848 20C118.215 20.3594 118.398 20.8008 118.398 21.3242C118.398 21.8477 118.215 22.293 117.848 22.6602C117.488 23.0195 117.043 23.1992 116.512 23.1992Z" fill="#ADADAD"/>
<path d="M0 14L14 28H0V14Z" fill="black"/>
<path d="M0 0L14 14H0V0Z" fill="black"/>
<path d="M28 14L14 28H28V14Z" fill="black"/>
<path d="M28 0L14 14H28V0Z" fill="black"/>
</svg>
