<?xml version="1.0" standalone="no"?>
<!DOCTYPE svg PUBLIC "-//W3C//DTD SVG 20010904//EN"
 "http://www.w3.org/TR/2001/REC-SVG-20010904/DTD/svg10.dtd">
<svg version="1.0" xmlns="http://www.w3.org/2000/svg"
 width="1500.000000pt" height="1500.000000pt" viewBox="0 0 1500.000000 1500.000000"
 preserveAspectRatio="xMidYMid meet">
<metadata>
Created by potrace 1.16, written by Peter Selinger 2001-2019
</metadata>
<g transform="translate(0.000000,1500.000000) scale(0.100000,-0.100000)"
fill="#000000" stroke="none">
<path d="M0 14840 c0 -88 1 -160 3 -160 14 0 772 241 776 247 3 4 18 9 32 10
14 1 66 14 115 30 l89 28 -359 3 c-257 2 -362 -1 -367 -9 -5 -8 -8 -8 -13 0
-8 12 -76 16 -76 4 0 -4 10 -17 22 -30 16 -18 18 -22 6 -18 -9 4 -24 18 -33
31 -14 22 -21 24 -105 24 l-90 0 0 -160z"/>
<path d="M7003 14983 c7 -25 641 -1582 711 -1745 9 -20 19 -39 23 -41 5 -3 44
6 88 18 94 27 517 141 1405 380 355 95 897 241 1205 325 772 208 1645 444
1796 486 145 39 160 40 182 16 9 -9 108 -242 220 -517 236 -576 361 -875 442
-1062 l58 -133 934 0 933 0 0 1145 0 1145 -4001 0 c-3806 0 -4001 -1 -3996
-17z"/>
<path d="M6625 13649 c-82 -28 -190 -64 -240 -79 -174 -54 -664 -212 -1014
-327 -375 -122 -401 -135 -401 -191 0 -26 202 -546 219 -565 4 -4 20 -3 37 2
16 5 106 34 199 64 94 30 195 58 225 62 30 3 98 18 150 31 139 37 134 34 121
47 -19 19 -12 22 39 19 32 -3 50 0 50 7 0 6 7 11 15 11 19 0 19 29 0 54 -26
34 -19 50 13 29 69 -47 123 -17 120 67 -1 27 -5 45 -8 40 -4 -6 -18 -6 -39 0
-36 10 -63 -3 -105 -49 -15 -17 -31 -21 -78 -21 -50 0 -60 -3 -66 -20 -7 -20
-9 -20 -34 7 -32 33 -62 99 -49 108 10 6 41 -32 41 -50 0 -6 8 -15 18 -22 15
-9 21 -7 30 8 10 15 9 19 -2 19 -14 0 -27 72 -16 89 15 23 76 43 117 38 26 -3
46 0 50 6 13 22 12 65 -2 77 -23 19 -43 6 -38 -24 3 -14 1 -26 -4 -26 -15 0
-54 58 -43 65 6 3 10 1 10 -5 0 -7 5 -6 14 2 12 11 12 14 0 21 -8 4 -26 19
-41 33 -14 13 -32 24 -39 24 -22 0 -16 16 9 28 21 10 21 11 -6 11 -21 1 -30
-5 -34 -20 -4 -14 -8 -17 -13 -9 -6 9 -15 7 -35 -6 l-28 -18 26 -9 c20 -6 25
-15 25 -38 -1 -24 -5 -29 -27 -29 -26 0 -71 -42 -71 -66 0 -12 -39 -40 -44
-32 -12 18 -24 58 -18 58 5 0 14 22 21 49 11 42 51 101 51 75 0 -5 4 -4 8 1
31 43 114 82 187 89 112 9 217 -65 256 -181 11 -35 26 -63 32 -63 33 -1 79
-138 56 -166 -13 -15 -7 -50 13 -77 12 -16 16 -16 60 -2 54 19 58 28 56 140 0
84 11 96 103 114 73 15 100 2 50 -23 -36 -19 -38 -34 -13 -67 10 -13 24 -39
31 -56 14 -35 31 -42 49 -20 7 8 7 18 2 27 -14 22 -12 50 3 50 7 0 28 -11 47
-25 21 -15 47 -25 68 -25 35 0 243 54 344 89 31 10 59 17 62 14 13 -13 1 19
-120 319 -70 176 -135 323 -148 336 -40 40 -84 37 -251 -19z"/>
<path d="M9515 13573 c-118 -24 -278 -65 -310 -78 -16 -7 -55 -21 -85 -30 -30
-10 -66 -23 -80 -30 -14 -8 -72 -36 -130 -64 -129 -63 -208 -129 -330 -276
l-92 -110 -335 -92 c-184 -50 -336 -93 -339 -95 -4 -5 84 -229 94 -240 4 -4
63 9 131 28 68 19 126 33 129 30 3 -3 -2 -14 -10 -23 -20 -23 -41 -90 -34
-108 3 -8 -2 -19 -11 -23 -11 -7 -14 -15 -8 -28 4 -11 7 -73 5 -138 -2 -116
-10 -146 -38 -146 -11 0 -22 -24 -22 -47 0 -14 3 -13 24 1 28 18 32 14 34 -29
1 -20 -9 -46 -33 -79 -32 -46 -40 -75 -13 -48 7 7 18 12 24 12 7 0 32 13 56
29 47 32 107 60 181 86 40 14 141 75 157 94 3 4 16 12 30 18 l25 11 -37 16
c-44 19 -50 36 -13 36 29 0 33 15 8 29 -10 6 -14 11 -10 11 5 0 28 -14 53 -30
48 -34 61 -32 100 12 41 46 56 99 51 180 -4 66 -9 83 -46 145 -23 39 -49 74
-56 77 -8 3 -12 12 -9 20 6 16 -7 24 -96 55 -42 15 -45 18 -43 51 2 42 13 80
23 80 4 0 13 14 20 30 7 17 16 30 19 30 4 0 18 21 31 46 49 99 199 259 286
306 79 43 156 59 334 68 91 5 199 12 241 15 48 4 109 0 167 -10 51 -8 131 -22
180 -30 48 -8 105 -17 127 -20 71 -9 79 -12 83 -23 2 -7 9 -12 15 -12 6 0 21
-9 33 -21 21 -20 160 -63 197 -61 12 1 17 -4 14 -13 -8 -19 72 -29 121 -14 29
8 44 8 60 0 25 -13 43 -15 22 -1 -24 15 -6 20 28 8 35 -13 45 -33 12 -23 -18
6 -19 4 -10 -20 15 -41 12 -50 -11 -29 l-21 19 7 -32 c6 -29 4 -32 -11 -26
-14 5 -16 3 -10 -13 4 -10 15 -41 23 -69 19 -65 37 -84 27 -30 -3 22 -11 46
-17 53 -7 9 -7 16 0 20 5 4 12 14 15 22 6 20 50 -79 83 -187 15 -48 42 -134
61 -190 19 -56 34 -114 34 -128 0 -14 7 -28 15 -31 10 -4 13 -13 9 -26 -3 -11
0 -27 8 -36 25 -32 38 -61 29 -67 -11 -6 16 -65 31 -65 6 0 7 8 3 18 -3 9 -11
37 -17 62 -6 25 -21 77 -34 115 -55 174 -75 247 -71 259 3 7 -6 34 -19 60 -13
26 -26 66 -29 89 l-6 42 18 -32 c9 -18 20 -33 25 -33 4 0 8 -6 8 -14 0 -7 16
-47 35 -89 40 -86 41 -91 19 -83 -13 5 -15 2 -9 -11 4 -10 15 -38 24 -63 13
-36 16 -40 19 -22 2 13 -4 34 -12 48 -9 13 -12 24 -7 24 5 0 13 -5 16 -11 4
-5 18 -14 32 -20 13 -5 22 -13 18 -19 -5 -8 15 -102 31 -150 4 -13 6 -13 14 0
8 13 10 12 10 -2 0 -10 4 -18 9 -18 5 0 11 -8 15 -17 3 -10 10 -28 16 -40 12
-29 6 -29 -20 -1 l-20 22 0 -22 c0 -11 4 -23 9 -27 15 -9 53 -134 48 -156 -3
-10 -2 -17 2 -14 5 2 13 -7 19 -20 7 -15 8 -25 2 -25 -6 0 -10 -3 -9 -7 2 -15
-13 -53 -21 -53 -9 0 -6 52 4 69 5 8 1 14 -12 17 -12 4 -24 21 -33 47 -10 34
-14 38 -17 20 -5 -32 -17 -29 -32 7 -7 17 -17 30 -22 30 -13 0 0 -39 24 -70
16 -22 33 -90 23 -90 -2 0 -13 20 -24 45 -11 25 -25 45 -30 45 -6 0 -11 -3
-11 -7 2 -19 26 -103 33 -109 4 -4 7 -16 7 -26 0 -10 9 -46 21 -79 11 -34 19
-69 17 -78 -2 -9 -16 20 -32 64 -41 117 -88 227 -93 221 -3 -3 0 -19 6 -37 9
-26 8 -34 -5 -44 -14 -9 -14 -16 -5 -33 6 -12 9 -22 6 -22 -3 0 -1 -10 6 -21
9 -17 8 -23 -2 -30 -11 -7 -9 -18 14 -58 29 -53 36 -78 12 -47 -8 11 -15 17
-15 14 0 -13 41 -102 59 -127 24 -33 39 -87 22 -77 -16 10 -14 -9 3 -23 7 -6
16 -36 19 -67 3 -30 10 -61 14 -67 10 -12 30 -97 33 -132 7 -87 4 -145 -7
-145 -11 0 -13 -10 -16 -97 -1 -24 -5 -43 -8 -43 -13 0 -18 -29 -9 -58 5 -20
4 -34 -3 -41 -14 -14 6 -73 40 -118 13 -18 20 -33 16 -33 -14 1 -43 27 -43 39
0 6 -4 11 -9 11 -12 0 -20 -59 -9 -66 5 -3 6 -21 2 -40 -9 -47 26 -121 61
-130 14 -3 25 -10 25 -14 0 -4 6 -8 13 -7 6 0 28 -1 47 -1 36 -2 32 -18 -7
-24 -15 -2 -20 -7 -15 -16 17 -26 122 39 122 75 0 23 46 59 102 79 55 19 79
19 71 -3 -5 -13 -2 -15 18 -9 109 34 241 9 318 -60 67 -60 85 -109 79 -216
-12 -206 -136 -356 -411 -496 -129 -67 -227 -83 -341 -57 -39 9 -92 20 -117
25 -25 5 -108 32 -184 60 -75 28 -145 50 -154 49 -30 -3 -31 1 -11 35 l19 35
-27 -3 c-15 -2 -30 -12 -36 -25 -5 -12 -15 -20 -22 -17 -7 3 -18 -2 -24 -9 -7
-8 -15 -13 -18 -12 -4 1 -16 -7 -28 -18 -43 -41 -71 -61 -134 -92 -36 -18 -76
-39 -90 -47 -43 -24 -114 -54 -143 -61 -15 -4 -30 -11 -33 -16 -3 -5 -16 -6
-29 -3 -12 3 -26 1 -29 -5 -4 -6 -17 -11 -30 -11 -12 0 -26 -3 -29 -6 -4 -4
-23 -8 -43 -10 -20 -2 -42 -8 -50 -15 -11 -9 -14 -9 -14 0 0 9 -5 9 -20 1 -34
-18 -97 -23 -315 -23 -202 0 -396 17 -496 43 -20 6 -61 12 -92 14 l-54 5 -12
-38 c-13 -43 -30 -65 -85 -107 -22 -16 -58 -49 -80 -73 -36 -38 -220 -189
-265 -216 -9 -5 -18 -13 -21 -16 -3 -3 -12 -9 -20 -12 -8 -4 -28 -16 -45 -27
-16 -11 -37 -23 -45 -27 -8 -4 -19 -11 -25 -15 -28 -23 -101 -68 -112 -68 -6
0 -13 -3 -15 -7 -1 -5 -19 -16 -38 -26 -19 -10 -53 -29 -75 -43 -22 -13 -48
-27 -58 -30 -12 -4 -17 -13 -14 -25 3 -12 -4 -24 -23 -36 -29 -18 -160 -139
-160 -148 0 -2 -12 -17 -26 -32 -56 -60 -97 -114 -90 -120 3 -4 11 -2 17 4 6
6 17 9 24 6 9 -3 15 5 17 23 2 22 24 43 113 106 61 43 153 121 205 172 64 63
135 119 220 174 194 125 306 210 404 304 l90 87 25 -19 c62 -44 99 -109 134
-235 19 -69 102 -516 148 -801 l21 -131 -46 -79 c-55 -94 -94 -192 -131 -329
-15 -55 -33 -107 -40 -115 -26 -29 -74 -145 -109 -262 -19 -64 -44 -136 -55
-160 -11 -24 -33 -72 -49 -108 -16 -36 -52 -93 -80 -126 -47 -56 -62 -66 -159
-109 -60 -26 -211 -85 -338 -130 -215 -78 -361 -137 -455 -185 l-40 -20 0 82
c0 46 -7 146 -16 223 -9 77 -18 194 -20 260 -4 131 -17 196 -44 220 -15 14
-21 14 -53 0 -20 -8 -49 -15 -64 -15 -33 0 -47 -9 -51 -32 -4 -22 14 -23 34
-3 17 16 44 20 44 6 0 -5 -8 -11 -17 -14 -10 -3 -37 -13 -60 -21 -39 -14 -45
-14 -85 3 -52 22 -122 36 -114 23 3 -5 26 -15 51 -22 25 -7 48 -16 50 -21 9
-14 -138 -21 -227 -10 -48 5 -115 21 -150 35 -58 22 -124 36 -395 82 -98 17
-122 28 -87 41 8 3 13 12 10 19 -9 22 25 84 46 84 12 0 18 7 18 21 0 13 -4 18
-12 13 -26 -16 13 196 43 233 6 6 11 25 11 42 1 17 5 28 11 24 5 -3 6 3 3 15
-4 11 0 35 8 53 8 19 29 80 47 137 18 57 36 105 41 108 4 3 8 14 8 25 0 10 4
19 10 19 5 0 7 7 3 15 -5 16 22 55 39 55 4 0 8 -11 8 -25 0 -14 5 -25 11 -25
6 0 9 9 6 20 -6 24 -1 25 19 6 17 -17 8 -47 -12 -39 -8 3 -14 0 -14 -7 0 -6
-5 -8 -12 -4 -7 4 -8 3 -4 -4 4 -6 13 -9 21 -5 8 3 15 1 15 -5 0 -5 -10 -12
-21 -15 -19 -5 -21 -11 -15 -41 4 -23 3 -36 -4 -36 -5 0 -10 6 -10 13 -1 6 -8
-8 -16 -31 -17 -48 -10 -69 11 -37 8 11 18 25 23 31 5 6 13 20 16 32 4 12 13
28 19 34 16 17 67 120 67 136 0 6 5 12 10 12 6 0 10 7 10 16 0 9 8 28 18 42
10 15 31 72 46 127 16 55 34 114 41 130 11 25 85 234 85 241 0 1 -9 4 -19 7
-12 3 -32 -6 -53 -24 -42 -33 -101 -165 -100 -221 1 -21 -3 -38 -8 -38 -5 0
-7 7 -4 15 4 9 0 15 -9 15 -19 0 -30 27 -14 33 9 3 9 8 -1 20 -11 13 -12 27
-2 69 6 29 14 71 17 93 3 22 9 48 14 57 5 9 8 21 8 25 -1 4 1 16 6 26 4 9 5
26 2 37 -3 10 0 21 5 22 7 3 7 12 -2 27 -11 21 -10 23 4 18 10 -4 16 -1 16 8
0 8 -4 15 -9 15 -14 0 -7 43 12 70 21 31 23 85 3 77 -11 -4 -13 2 -11 25 3 16
7 39 10 49 10 32 14 237 5 271 -5 18 -14 59 -21 90 -6 31 -18 59 -25 62 -19 7
-17 -16 8 -99 28 -93 27 -161 -6 -395 -7 -52 -14 -113 -15 -135 -4 -142 -12
-178 -76 -315 -74 -161 -93 -213 -139 -390 -40 -154 -72 -248 -111 -335 -64
-142 -138 -361 -170 -499 l-6 -29 -71 7 c-72 7 -98 18 -98 42 0 30 -31 45 -78
38 -27 -3 -60 -1 -76 5 -25 10 -32 9 -51 -9 -20 -19 -31 -20 -98 -16 -42 4
-88 11 -103 16 -21 9 -31 7 -46 -7 -17 -15 -19 -26 -14 -73 4 -30 9 -129 11
-220 3 -91 8 -181 11 -200 3 -19 8 -74 9 -122 2 -48 6 -91 8 -96 3 -4 8 -43
12 -87 4 -44 9 -83 11 -86 1 -3 4 -83 5 -178 1 -152 -1 -174 -16 -191 -26 -28
-23 -130 4 -176 28 -47 27 -108 -3 -315 -17 -114 -30 -175 -44 -199 -30 -50
-33 -106 -11 -165 17 -46 18 -62 9 -190 -16 -219 -28 -329 -53 -481 l-23 -141
42 -109 c24 -60 45 -113 46 -117 4 -9 251 62 1468 425 926 275 1411 419 2081
617 262 77 488 145 502 150 l25 10 -32 108 c-31 105 -34 111 -129 231 -54 67
-101 122 -105 122 -7 0 -325 -92 -330 -96 -2 -1 3 -71 12 -155 8 -84 13 -155
11 -157 -8 -8 -268 -82 -274 -77 -4 2 -8 25 -9 52 -1 26 -9 143 -17 258 -8
116 -19 280 -25 365 -15 234 -20 304 -30 430 -5 63 -6 118 -2 121 4 4 78 28
166 54 87 26 164 49 171 51 6 3 74 -74 150 -171 76 -96 140 -175 143 -175 2 0
0 15 -3 33 -13 57 -79 199 -142 304 -52 87 -64 117 -83 204 -22 106 -26 272
-5 266 22 -8 56 -75 129 -260 42 -107 97 -227 122 -266 25 -40 53 -94 62 -119
20 -54 54 -66 61 -22 7 51 -41 320 -89 497 -11 39 -20 82 -20 95 0 14 -3 28
-7 32 -4 4 -9 24 -10 44 -1 20 -6 46 -11 57 -26 58 -74 228 -66 233 5 4 10 16
12 27 2 16 1 17 -7 5 -11 -16 -16 -9 -24 43 -3 21 -2 26 7 17 6 -6 12 -15 12
-21 3 -22 5 -23 13 -10 8 12 19 7 58 -24 26 -22 54 -45 61 -52 21 -20 56 -38
48 -24 -4 6 0 11 9 11 11 0 15 -5 12 -14 -9 -23 51 -57 74 -43 20 12 15 27
-25 70 -23 25 -23 27 -6 27 18 0 18 3 7 28 -6 15 -14 29 -17 32 -3 3 -6 20 -6
39 -1 18 -7 37 -15 42 -11 7 -12 11 -1 17 10 7 10 11 -3 22 -12 10 -13 15 -4
21 9 5 5 17 -15 43 -15 20 -24 36 -20 36 3 0 1 6 -5 14 -6 8 -11 18 -10 22 3
19 -2 28 -9 17 -5 -8 -17 11 -31 50 -13 34 -32 80 -42 102 -11 22 -15 41 -9
43 5 2 4 12 -3 24 -9 16 -9 22 0 25 10 4 9 10 -2 26 -8 12 -15 28 -15 37 0 8
-7 28 -15 44 -8 15 -13 32 -10 36 3 5 0 12 -6 16 -9 5 -7 11 5 19 14 11 15 13
1 18 -8 4 -12 13 -9 22 4 8 1 21 -5 29 -6 7 -9 20 -5 29 3 8 1 18 -5 22 -6 3
-11 17 -11 29 0 13 -7 29 -15 36 -8 7 -15 18 -15 24 0 6 -14 40 -32 76 -18 36
-33 70 -33 75 -1 6 -6 18 -10 29 -4 10 -8 31 -9 47 -1 16 -4 29 -7 29 -3 0 -5
26 -4 58 3 80 3 82 19 82 8 0 18 9 21 20 5 15 12 19 26 15 15 -5 17 -3 12 11
-6 17 -6 18 47 2 8 -3 12 -3 8 -1 -21 12 -5 25 23 19 25 -5 30 -3 25 10 -3 8
-2 12 4 9 5 -3 26 1 46 10 20 8 39 13 42 10 3 -3 13 2 23 11 10 9 27 14 39 11
13 -3 20 0 20 9 0 8 9 14 20 14 11 0 20 5 20 11 0 6 7 9 15 5 21 -8 51 4 34
15 -8 4 4 11 32 18 24 6 58 16 74 22 17 6 44 14 60 16 17 3 35 9 40 13 9 7 65
24 120 37 40 9 65 18 120 43 22 10 57 22 78 25 21 4 44 16 50 26 7 11 16 19
20 19 5 0 23 11 40 24 18 14 45 30 62 36 23 9 26 13 15 20 -12 8 -10 10 7 10
13 0 30 11 39 25 9 14 23 25 30 25 8 0 19 11 24 25 5 14 16 25 25 25 8 0 15 4
15 9 0 5 15 5 34 1 19 -4 37 -5 40 -2 3 2 25 -14 48 -38 51 -50 100 -73 189
-90 37 -6 81 -20 98 -31 34 -21 34 -25 7 -134 -9 -33 -13 -74 -10 -92 3 -17
-2 -64 -11 -105 -17 -69 -21 -172 -9 -210 8 -26 -74 -186 -155 -298 -73 -103
-98 -151 -173 -330 -84 -200 -142 -351 -193 -500 -30 -85 -68 -189 -85 -230
-18 -41 -49 -127 -70 -190 -21 -63 -42 -123 -45 -133 -7 -17 -1 -18 91 -12
131 9 130 9 139 -123 l7 -103 -58 6 c-75 8 -203 -17 -262 -52 -54 -31 -80 -72
-74 -114 6 -39 22 -19 22 27 0 42 22 61 44 39 18 -18 21 -35 6 -35 -5 0 -7 -7
-4 -15 4 -8 -1 -17 -10 -21 -20 -8 -21 -24 -1 -24 9 0 12 -6 9 -15 -5 -11 -11
-12 -27 -4 -18 9 -18 7 3 -10 35 -29 79 -40 218 -51 213 -17 296 -45 381 -129
71 -69 104 -144 104 -241 2 -203 -201 -359 -522 -400 -51 -7 -117 -9 -147 -5
-59 7 -53 -5 -76 140 l-12 80 -13 -97 c-6 -54 -17 -115 -23 -135 -6 -21 -13
-56 -16 -78 -3 -22 -12 -65 -20 -95 -33 -120 -33 -120 -15 -120 9 0 228 63
486 140 468 140 644 192 930 275 139 40 673 199 1545 460 195 58 434 129 530
156 96 28 409 121 695 206 286 85 571 170 634 189 63 18 115 35 117 37 7 7
-77 178 -90 183 -6 2 -34 -2 -61 -10 -38 -12 -52 -13 -64 -3 -18 13 -161 133
-296 247 -177 150 -262 225 -364 324 -57 56 -101 92 -98 81 3 -11 31 -78 62
-150 77 -175 257 -617 258 -634 2 -15 -222 -86 -233 -74 -19 23 -441 1096
-434 1102 5 4 46 18 92 31 45 12 82 24 82 26 0 2 -80 2 -177 0 -98 -3 -230 -4
-293 -3 -63 0 -317 1 -565 2 -247 0 -488 5 -535 10 -47 6 -162 9 -257 8 l-172
-2 -3 42 c-2 34 -9 45 -35 62 -80 50 -152 94 -195 118 -78 43 -313 223 -346
265 l-31 39 50 69 c57 78 94 155 132 270 25 75 45 176 44 219 -3 86 4 135 18
135 8 0 15 7 15 15 0 9 6 17 13 19 78 22 106 33 126 48 13 10 31 18 41 18 9 0
30 12 47 28 39 34 163 183 163 195 0 5 19 32 43 60 38 46 69 91 163 237 18 29
80 155 124 255 16 35 58 168 80 250 12 44 29 107 38 140 13 48 16 109 16 295
-1 213 -3 247 -27 365 -31 150 -59 246 -109 365 -20 47 -46 112 -59 145 -42
109 -165 299 -251 388 -16 16 -28 32 -28 35 0 17 -160 172 -197 191 -24 12
-43 26 -43 31 0 6 -9 10 -21 10 -15 0 -19 5 -15 16 3 9 2 12 -5 8 -6 -3 -17 3
-25 15 -8 12 -22 21 -30 21 -8 0 -14 7 -14 16 0 23 -47 87 -54 75 -5 -7 -19
-3 -40 12 -102 69 -146 97 -154 97 -4 0 -21 14 -37 30 -16 17 -32 30 -36 30
-3 0 -49 28 -101 63 -52 34 -126 76 -164 92 -38 16 -98 46 -134 67 -36 21 -74
38 -86 38 -11 0 -52 11 -90 24 -137 48 -261 75 -387 85 -166 14 -315 12 -402
-6z m1563 -830 c23 -36 42 -67 42 -70 0 -9 50 -53 61 -53 5 0 9 -7 9 -16 0 -8
5 -24 10 -35 10 -17 13 -18 25 -5 8 8 15 21 15 28 1 16 50 -42 50 -59 0 -7 5
-13 10 -13 6 0 10 -8 10 -17 -1 -16 -3 -15 -19 4 -10 12 -21 20 -24 17 -8 -9
3 -36 26 -61 11 -13 18 -26 14 -29 -10 -10 -45 36 -55 70 -4 16 -14 32 -21 34
-9 3 -11 -2 -6 -17 6 -21 -8 -30 -20 -11 -4 6 -11 8 -16 5 -5 -4 -16 1 -25 10
-24 23 -27 12 -10 -29 17 -41 6 -50 -12 -10 -15 31 -64 94 -74 94 -5 0 -8 -8
-8 -17 -1 -13 -8 -9 -30 17 -34 39 -36 36 -14 -20 17 -41 16 -55 -1 -42 -14
10 -70 120 -85 167 -7 22 -17 46 -23 53 -5 6 -7 12 -3 12 4 0 0 14 -9 30 -9
18 -11 30 -5 30 6 0 16 -11 22 -25 6 -14 15 -25 20 -25 4 0 8 -11 8 -24 0 -14
5 -28 10 -31 6 -3 10 -17 10 -31 0 -13 5 -24 11 -24 7 0 9 10 5 26 -4 16 -3
23 3 20 5 -4 -2 14 -16 39 -14 25 -23 48 -20 51 6 7 60 -62 85 -111 29 -54 59
-91 68 -83 4 4 -5 25 -20 46 -14 21 -26 42 -26 47 0 5 -19 36 -42 70 -34 48
-36 55 -14 35 15 -14 35 -38 44 -55 9 -18 17 -25 20 -17 2 7 -2 21 -10 30 -17
21 -38 68 -37 85 0 7 6 4 12 -7 7 -10 31 -48 55 -83z m-211 -170 c17 -27 37
-60 44 -75 15 -34 26 -36 32 -5 3 21 4 21 15 -5 6 -15 20 -33 32 -40 11 -7 20
-18 20 -25 0 -7 9 -17 20 -23 11 -6 20 -20 20 -30 0 -11 5 -20 11 -20 6 0 8 7
5 15 -21 51 -21 51 -4 37 9 -7 20 -27 23 -43 4 -16 11 -32 17 -35 15 -10 0 64
-18 90 -17 24 -18 36 -3 36 5 0 19 -21 30 -47 11 -27 26 -61 34 -78 8 -16 19
-43 25 -58 5 -16 15 -25 20 -22 10 6 30 -34 72 -140 26 -64 33 -95 22 -95 -10
1 -54 90 -54 108 0 21 -35 82 -48 82 -14 0 -9 -31 15 -87 16 -39 16 -43 3 -43
-5 0 -10 8 -10 18 -1 20 -29 73 -30 54 0 -18 -20 -4 -20 14 0 9 5 12 11 8 7
-4 10 -1 7 7 -8 23 -32 16 -39 -11 -6 -21 -7 -22 -9 -5 -1 11 -2 24 -1 28 1 5
-7 19 -18 33 -18 23 -20 24 -30 7 -8 -15 -10 -15 -11 -2 0 20 -23 69 -32 69
-4 0 -4 -17 -1 -37 10 -64 -12 -25 -41 71 -26 90 -32 103 -41 94 -3 -2 4 -31
15 -63 11 -32 18 -60 16 -63 -8 -7 -26 9 -26 24 0 8 -4 14 -10 14 -5 0 -10 -9
-10 -21 0 -11 -4 -17 -10 -14 -5 3 -7 19 -3 35 5 28 4 30 -26 30 -30 0 -45 24
-21 32 6 2 -3 19 -19 39 -23 28 -30 47 -32 85 -1 27 -6 57 -11 67 -5 10 -5 17
1 17 6 0 17 -13 26 -30 9 -16 20 -30 25 -30 13 0 12 10 -5 40 -14 24 -18 40
-12 40 2 0 17 -21 34 -47z m2119 -4256 c203 -69 352 -234 427 -472 85 -275 0
-507 -230 -628 -283 -148 -609 -78 -795 171 -84 112 -145 271 -155 402 -17
231 109 428 330 512 138 53 295 58 423 15z m-884 -780 c119 -298 218 -548 220
-556 2 -9 -36 -25 -127 -52 -71 -21 -130 -37 -131 -36 -9 11 -444 1110 -440
1114 7 8 219 71 241 72 17 0 50 -74 237 -542z m-492 -152 c122 -306 220 -558
217 -561 -10 -11 -239 -75 -251 -71 -6 3 -52 106 -101 231 -62 155 -95 226
-105 226 -19 0 -410 -116 -418 -124 -3 -4 33 -104 81 -224 47 -119 89 -224 92
-233 5 -13 -17 -23 -118 -52 -68 -21 -129 -37 -135 -37 -10 0 -456 1109 -449
1116 6 6 238 74 252 74 6 0 49 -94 95 -210 46 -115 85 -210 88 -210 5 0 426
123 430 126 2 1 -35 97 -82 214 -66 163 -82 212 -71 216 28 11 230 72 241 73
7 1 112 -249 234 -554z m-3338 -469 c21 -55 35 -102 31 -106 -4 -4 -106 -35
-225 -70 -120 -35 -218 -67 -218 -71 0 -8 90 -240 96 -247 1 -2 98 24 214 58
117 34 214 59 216 57 7 -6 84 -200 81 -203 -1 -1 -97 -30 -212 -64 -116 -34
-211 -63 -212 -64 -1 -1 39 -102 87 -226 49 -123 88 -225 87 -227 -2 -1 -63
-20 -136 -42 l-132 -39 -9 21 c-4 12 -106 267 -225 566 -119 298 -215 544
-213 546 6 6 713 213 722 211 5 -1 26 -46 48 -100z"/>
<path d="M12689 8116 c-66 -23 -103 -51 -133 -100 -25 -40 -30 -60 -34 -129
-9 -185 95 -395 241 -485 48 -30 68 -36 132 -40 66 -4 81 -2 130 22 121 60
161 183 116 358 -67 263 -278 437 -452 374z"/>
<path d="M4495 12965 c-71 -23 -143 -48 -160 -54 -16 -6 -84 -27 -150 -47 -66
-20 -129 -43 -140 -50 -11 -8 -29 -14 -40 -14 -11 0 -61 -14 -110 -31 -50 -16
-99 -33 -110 -36 -25 -7 -468 -148 -685 -218 -91 -30 -184 -59 -208 -66 -49
-14 -92 -58 -92 -95 0 -20 80 -229 160 -420 l22 -52 65 24 c36 13 80 24 96 24
17 0 53 6 81 14 73 21 224 61 343 93 81 20 106 31 119 50 14 22 14 26 0 41
-16 19 -38 101 -30 114 10 17 21 -2 16 -28 -3 -19 2 -32 20 -48 19 -16 24 -29
22 -53 -4 -33 8 -44 22 -21 4 7 7 30 5 52 l-2 39 42 -37 c28 -26 48 -36 63
-33 11 2 73 19 136 37 164 46 283 78 375 100 44 11 87 24 95 28 8 5 40 15 70
22 30 8 61 18 69 24 8 6 25 9 38 8 15 -2 23 1 21 10 -2 9 7 12 30 10 28 -3 32
0 32 21 0 13 -7 46 -15 73 -8 27 -15 52 -15 56 0 7 26 4 60 -7 16 -5 18 1 19
49 0 31 -4 58 -9 61 -10 6 -14 155 -4 155 3 0 12 -7 20 -15 17 -16 74 -21 74
-5 0 5 -18 56 -41 114 -47 122 -77 156 -137 155 -20 0 -95 -20 -167 -44z m-65
-290 c13 -16 16 -81 5 -115 -13 -40 -91 -37 -99 3 -16 77 -16 96 -1 111 21 20
79 21 95 1z m-343 -44 c27 -21 63 -46 80 -55 17 -8 41 -28 52 -43 12 -16 40
-42 63 -58 26 -19 46 -44 54 -68 7 -21 9 -35 4 -32 -6 4 -10 1 -10 -4 0 -6 5
-11 10 -11 12 0 13 -30 0 -50 -7 -12 -12 -12 -29 4 -15 14 -29 16 -64 11 -35
-5 -56 -2 -93 14 -27 12 -52 27 -56 34 -5 8 -39 11 -117 9 -86 -2 -110 1 -114
12 -6 15 20 26 60 26 47 0 125 22 115 32 -9 9 -79 2 -179 -18 -26 -5 -33 -3
-33 9 0 17 80 54 146 66 62 12 73 25 35 44 -22 11 -40 13 -68 6 -52 -12 -53
-12 -53 10 0 19 110 101 136 101 7 0 34 -17 61 -39z"/>
<path d="M7476 12709 c-76 -21 -140 -40 -141 -41 -2 -2 98 -255 221 -563 l225
-560 -10 -85 c-6 -47 -15 -197 -21 -335 -6 -137 -15 -279 -20 -315 -10 -77
-24 -500 -15 -500 3 0 21 10 40 23 29 18 34 26 30 48 -4 17 0 32 9 42 9 9 16
22 16 29 0 29 31 58 63 58 18 0 39 4 47 10 9 5 19 5 26 -1 9 -7 14 -5 18 8 5
15 17 18 74 18 44 0 75 -5 86 -14 14 -12 22 -12 54 1 20 7 37 19 37 25 0 6 3
14 7 18 4 4 4 13 1 21 -3 9 2 14 13 15 11 0 14 3 7 6 -33 13 -6 23 63 23 67 0
75 2 64 15 -10 12 -9 15 7 15 16 0 19 5 15 25 -3 18 0 25 12 25 9 0 16 -4 16
-10 0 -5 11 -10 25 -10 18 0 25 -5 25 -20 0 -18 5 -20 48 -15 62 6 135 38 155
69 19 29 15 48 -36 156 -19 41 -51 111 -71 155 -43 93 -111 201 -132 209 -8 3
-14 11 -14 19 0 24 -78 58 -153 67 -40 4 -90 15 -111 23 -67 25 -135 -10 -203
-104 -19 -27 -37 -49 -39 -49 -2 0 -1 13 2 29 4 20 2 30 -10 34 -20 8 -21 43
-2 54 7 4 15 14 18 22 2 8 24 20 49 27 155 44 215 67 260 99 40 30 54 35 79
30 34 -8 35 -6 16 56 -18 59 -49 119 -99 193 -21 32 -54 90 -72 129 l-33 70
-26 -26 c-23 -24 -26 -33 -26 -102 0 -85 9 -72 -119 -185 -74 -66 -119 -83
-113 -45 7 46 68 174 110 229 l44 59 -173 434 c-127 318 -177 433 -188 432 -9
0 -78 -18 -155 -40z m794 -1670 c0 -5 12 -6 28 -3 15 3 43 -1 62 -9 36 -16 86
-64 76 -74 -7 -7 -153 16 -175 27 -9 4 -38 13 -66 19 -59 14 -61 16 -46 35 19
23 121 27 121 5z"/>
<path d="M9216 12554 c-20 -25 -32 -32 -41 -24 -14 12 -25 3 -25 -21 0 -9 -11
-24 -25 -33 -24 -16 -25 -15 -25 3 0 11 6 26 13 33 14 14 29 48 21 48 -2 0
-18 -21 -34 -47 -30 -46 -30 -47 -10 -65 11 -10 20 -26 20 -36 -1 -15 -2 -15
-15 2 -13 17 -14 10 -15 -60 0 -44 -1 -92 -2 -108 0 -17 6 -34 16 -41 9 -7 16
-21 16 -32 0 -11 10 -24 23 -30 13 -6 31 -26 39 -43 15 -31 15 -35 -3 -66 -10
-19 -15 -34 -11 -34 4 0 -1 -7 -11 -15 -13 -9 -17 -20 -12 -35 9 -29 36 -60
53 -60 7 0 15 -6 18 -14 3 -8 12 -12 20 -9 9 3 14 -2 14 -17 0 -18 3 -20 14
-11 11 9 17 8 28 -6 17 -24 71 -53 96 -53 12 0 24 -4 27 -10 3 -5 15 -10 26
-10 11 0 17 5 14 10 -3 6 4 10 15 10 14 0 24 -8 27 -21 4 -12 8 -16 13 -10 4
8 15 8 38 0 18 -6 44 -8 57 -5 18 5 25 2 25 -9 0 -18 17 -20 22 -3 3 7 9 8 18
3 7 -4 31 -10 54 -11 23 -2 51 -6 63 -9 12 -3 24 -1 27 4 3 5 24 7 46 4 24 -4
46 -1 54 7 9 6 19 9 25 6 5 -3 12 1 15 10 4 11 13 13 28 8 19 -6 19 -4 -6 19
-15 14 -25 31 -21 37 5 8 11 5 20 -7 13 -17 14 -16 12 7 -1 14 -7 31 -15 39
-12 12 -15 12 -22 0 -7 -11 -12 -11 -22 -1 -6 6 -9 12 -6 12 3 0 -7 14 -23 31
-16 17 -29 37 -29 44 0 7 -6 18 -14 24 -11 10 -16 6 -23 -16 l-10 -28 -8 25
c-5 15 -4 25 4 28 16 5 -51 82 -73 82 -12 0 -16 5 -12 15 3 8 1 15 -3 15 -5 0
-11 -5 -13 -12 -3 -8 -14 -5 -35 10 -36 26 -43 27 -43 8 0 -8 12 -17 26 -20
22 -6 70 -36 108 -67 20 -17 -47 -1 -72 18 -42 30 -60 37 -31 11 31 -28 63
-78 50 -78 -5 0 -13 5 -16 10 -3 6 -14 10 -23 10 -16 -1 -16 -2 1 -14 23 -18
22 -23 -10 -30 -36 -10 -133 32 -133 58 0 15 6 18 40 14 23 -2 41 1 41 7 8 63
0 78 -27 50 -20 -20 -32 -11 -14 10 11 13 8 17 -19 26 -17 6 -31 16 -31 21 0
6 6 6 15 -2 8 -6 19 -9 24 -6 5 4 12 2 16 -4 8 -12 45 -13 45 -1 0 5 -11 12
-25 15 -14 4 -25 11 -25 16 0 5 6 7 13 4 10 -3 13 3 9 24 -3 24 -12 33 -43 45
-24 9 -39 22 -39 32 0 11 -5 15 -15 11 -9 -3 -15 0 -15 9 0 8 -7 15 -15 15 -9
0 -23 6 -31 13 -63 51 -68 67 -26 86 15 8 34 17 44 22 10 5 20 3 27 -5 8 -10
23 -11 54 -6 26 5 47 4 55 -2 9 -8 16 -8 24 0 16 16 28 15 28 -3 0 -19 14 -19
34 1 14 14 18 14 38 0 12 -9 33 -13 47 -11 21 4 22 4 6 -3 -19 -9 -19 -9 2
-20 12 -7 28 -12 36 -12 7 0 24 -11 37 -25 13 -14 32 -25 42 -25 13 0 18 -8
18 -27 0 -20 3 -24 9 -14 5 7 13 11 17 8 5 -3 15 1 21 9 9 9 10 15 2 20 -6 3
-15 1 -19 -6 -4 -7 -7 -1 -7 16 0 19 -10 36 -32 54 -17 15 -31 31 -31 36 0 5
-25 23 -56 39 -53 28 -57 28 -69 12 -8 -12 -15 -14 -20 -8 -3 6 -2 11 3 11 15
0 -10 49 -28 55 -8 4 -16 1 -18 -4 -2 -6 -11 -11 -19 -11 -9 0 -13 6 -9 15 5
15 -2 17 -62 19 -12 1 -27 7 -31 15 -5 8 -16 11 -26 7 -14 -5 -16 -2 -12 21 4
16 4 22 1 16 -3 -7 -15 -13 -25 -13 -11 0 -18 4 -15 9 7 10 -78 31 -125 31
-17 0 -28 -4 -25 -9 3 -5 -8 -11 -25 -15 -17 -3 -28 -9 -25 -14 2 -4 -4 -8
-15 -8 -23 0 -24 9 -3 30 11 12 12 16 2 15 -7 0 -26 -16 -42 -35z"/>
<path d="M6676 12494 c-148 -27 -520 -144 -549 -173 -6 -6 98 -279 243 -643
139 -348 254 -634 255 -636 3 -3 295 77 307 84 3 2 -38 115 -93 251 -54 136
-99 250 -99 254 0 12 116 39 169 39 100 0 125 -22 304 -265 57 -77 111 -146
120 -153 13 -11 41 -6 171 30 86 23 156 46 156 51 0 5 -7 15 -16 24 -8 9 -74
94 -145 189 -72 95 -153 193 -179 218 -52 46 -126 86 -160 86 -28 0 -26 5 21
58 65 73 84 123 84 217 0 72 -4 89 -34 150 -94 190 -288 267 -555 219z m171
-254 c81 -36 130 -150 98 -226 -21 -51 -41 -72 -95 -99 -51 -26 -191 -67 -199
-59 -3 3 -36 82 -72 175 l-67 170 26 11 c122 49 239 60 309 28z"/>
<path d="M5675 12219 c-77 -22 -141 -42 -144 -44 -4 -5 498 -1275 509 -1288
10 -12 310 73 310 87 -1 6 -115 297 -254 646 -160 404 -258 636 -267 637 -8 0
-77 -17 -154 -38z"/>
<path d="M1915 12105 c-5 -2 -28 -9 -51 -14 -22 -6 -58 -27 -80 -46 -21 -19
-44 -35 -51 -35 -6 0 -14 -9 -18 -19 -3 -11 -13 -22 -21 -25 -34 -13 -54 -86
-54 -198 l0 -107 30 -23 c17 -12 34 -36 38 -53 14 -50 36 -43 51 17 22 94 30
106 69 115 25 6 38 15 40 28 17 102 35 116 84 64 24 -25 37 -30 79 -31 27 -1
49 -5 49 -10 0 -4 9 -8 20 -8 11 0 20 -5 20 -11 0 -5 4 -8 9 -4 5 3 13 0 16
-6 4 -5 13 -8 20 -5 8 3 19 -2 26 -10 10 -12 14 -12 28 -1 9 8 26 17 38 19 19
5 23 1 28 -33 9 -50 25 -51 26 -1 2 47 2 51 17 86 12 28 13 28 32 11 31 -28
25 -1 -16 74 -71 130 -178 202 -324 220 -89 12 -89 12 -105 6z"/>
<path d="M4889 12004 c-134 -20 -493 -131 -544 -168 -16 -11 4 -67 230 -637
136 -343 251 -631 256 -640 7 -15 25 -12 159 26 83 23 153 44 155 47 2 2 -36
107 -86 232 -49 126 -88 229 -87 230 2 1 37 10 78 19 194 45 359 152 424 277
77 148 36 352 -98 485 -120 118 -275 159 -487 129z m179 -263 c100 -51 142
-182 89 -276 -35 -62 -134 -116 -243 -131 l-40 -6 -73 186 c-40 102 -70 189
-67 194 5 9 117 46 166 56 47 9 127 -2 168 -23z"/>
<path d="M3770 11715 c-252 -54 -413 -162 -470 -312 -48 -126 -5 -292 98 -384
96 -85 209 -122 442 -144 218 -20 262 -36 302 -111 20 -38 21 -46 9 -83 -9
-33 -23 -49 -64 -76 -81 -53 -157 -69 -334 -70 -84 0 -153 -2 -153 -5 0 -34
33 -247 40 -254 13 -13 227 -8 320 8 247 44 430 155 502 304 81 171 5 382
-174 485 -64 38 -160 63 -283 76 -295 32 -320 38 -363 84 -35 37 -38 85 -10
126 30 46 68 67 163 91 55 14 111 20 187 20 l110 0 -7 68 c-4 37 -10 94 -14
127 l-6 60 -115 2 c-68 1 -142 -4 -180 -12z"/>
<path d="M8327 11706 c-8 -20 14 -43 131 -141 50 -43 92 -82 92 -87 0 -5 11
-20 25 -33 18 -19 34 -25 67 -24 47 1 43 4 -14 13 -35 6 -36 7 -31 45 7 47
-13 87 -70 140 -75 71 -188 120 -200 87z"/>
<path d="M1888 11653 c-25 -6 -22 -20 4 -29 l23 -7 -23 -8 c-28 -11 -28 -36 1
-45 12 -3 34 -15 48 -25 14 -10 29 -16 33 -12 3 3 6 2 6 -3 0 -5 -8 -17 -18
-25 -16 -14 -18 -30 -16 -132 l3 -117 -37 25 c-20 14 -45 25 -54 25 -20 0 -60
35 -51 44 3 3 -2 8 -11 12 -9 3 -16 15 -16 26 0 10 4 17 9 13 5 -3 12 -1 16 5
3 5 1 10 -6 10 -8 0 -9 3 0 14 9 10 8 16 -4 26 -12 10 -15 10 -15 -4 0 -10 -4
-14 -10 -11 -5 3 -10 15 -10 26 0 10 -4 19 -10 19 -5 0 -6 7 -3 17 4 10 2 14
-5 10 -6 -4 -12 1 -15 10 -2 10 -4 -1 -4 -24 1 -23 5 -39 9 -37 4 3 5 -17 2
-45 -5 -54 5 -90 33 -118 10 -10 29 -43 42 -72 29 -69 23 -128 -22 -188 -18
-23 -35 -43 -38 -43 -4 0 -29 15 -55 33 -42 29 -49 39 -52 71 -3 31 -6 35 -18
25 -17 -14 -18 -5 -4 22 10 18 7 19 -55 19 -79 0 -80 -8 -10 -62 53 -40 62
-61 40 -94 -18 -27 -78 -36 -107 -16 -18 13 -19 13 -10 -4 5 -11 7 -25 5 -31
-3 -9 8 -13 34 -14 33 -1 29 -3 -27 -15 -36 -7 -83 -19 -105 -27 l-40 -15 30
-7 c17 -3 39 -10 50 -15 19 -8 18 -9 -4 -9 l-24 -1 23 -25 c13 -14 28 -25 34
-25 6 0 16 -11 23 -25 9 -21 9 -25 -4 -25 -8 0 -11 -5 -7 -11 4 -7 -11 -2 -34
11 -25 14 -38 28 -35 36 5 14 -42 38 -57 29 -5 -3 -11 -1 -14 3 -3 5 -17 7
-31 5 -13 -3 -23 -8 -21 -12 2 -3 -19 -7 -46 -8 -28 0 -54 -6 -58 -13 -4 -6
-11 -12 -16 -13 -5 -1 -8 -5 -7 -9 2 -4 -4 -5 -11 -2 -21 8 -46 -47 -46 -100
0 -55 23 -118 60 -167 16 -19 37 -53 49 -75 l21 -39 -27 -7 c-16 -3 -38 -10
-50 -13 -16 -5 -23 -3 -23 6 0 7 -2 10 -6 7 -4 -5 86 -247 207 -557 9 -22 15
-14 63 85 179 363 515 652 964 828 170 66 458 136 566 136 72 0 73 6 31 111
-44 107 -121 266 -132 271 -4 2 -23 -3 -41 -13 -27 -14 -30 -18 -17 -29 18
-15 20 -40 3 -41 -121 -10 -115 -11 -138 21 -12 16 -24 29 -28 29 -4 -1 -9 -1
-12 1 -19 7 -60 7 -60 0 0 -4 -18 -6 -40 -3 -30 4 -45 1 -60 -12 -11 -10 -43
-22 -70 -26 -28 -4 -59 -10 -69 -14 -25 -8 -45 33 -32 67 7 19 6 31 -4 44 -8
11 -10 25 -5 34 11 21 16 73 7 87 -4 6 -3 14 3 18 6 4 7 11 4 17 -4 6 -1 13 5
17 8 5 5 14 -8 28 -20 21 -19 21 5 44 13 12 24 30 24 40 0 9 5 19 12 21 6 2 9
12 5 21 -5 13 -13 16 -32 11 -48 -12 -120 -11 -140 3 -11 7 -35 13 -55 13 -19
0 -52 5 -73 11 -46 12 -87 17 -109 12z"/>
<path d="M11320 10733 c-60 -10 -123 -37 -161 -69 -23 -19 -65 -46 -93 -59
-55 -26 -103 -83 -92 -110 3 -9 10 -14 16 -10 5 3 18 -9 29 -27 11 -18 26 -40
33 -48 7 -8 25 -29 39 -47 26 -32 27 -32 33 -10 10 37 7 66 -10 100 -9 18 -20
34 -23 37 -14 11 -42 62 -39 71 4 11 199 102 241 113 40 10 95 -8 166 -54 42
-27 66 -50 73 -70 12 -37 28 -39 28 -3 0 46 -39 111 -85 142 -38 26 -109 54
-125 50 -3 -1 -16 -4 -30 -6z"/>
<path d="M747 10332 c-45 -47 -36 -92 33 -163 33 -34 42 -39 58 -30 29 15 72
70 72 91 0 32 -34 97 -49 92 -8 -3 -11 0 -7 6 8 14 -3 20 -46 27 -28 5 -38 1
-61 -23z"/>
<path d="M8271 10285 c-47 -49 -114 -99 -155 -115 -14 -5 -42 -20 -63 -33 -21
-13 -49 -28 -62 -32 -14 -4 -53 -27 -87 -51 -35 -24 -67 -44 -71 -44 -5 0 -25
-12 -44 -26 l-34 -26 29 6 c32 8 114 46 216 101 36 19 73 34 82 35 21 0 158
109 197 157 24 29 46 73 37 73 -1 0 -22 -20 -45 -45z"/>
<path d="M3015 10135 c-314 -49 -644 -205 -860 -407 -69 -64 -73 -71 -64 -96
9 -25 8 -26 -6 -8 -15 20 -15 20 -31 0 -8 -10 -37 -52 -65 -93 -49 -74 -49
-74 -29 -93 39 -36 13 -87 -31 -59 -16 9 -19 8 -19 -8 0 -11 -4 -22 -9 -25
-14 -9 -33 -135 -29 -193 l3 -52 424 140 c234 77 430 138 435 135 6 -2 -1 -7
-16 -11 -25 -6 -26 -9 -16 -29 6 -11 10 -22 9 -24 -4 -4 30 -96 38 -102 3 -3
15 -22 25 -42 11 -21 23 -38 28 -38 4 0 8 -6 8 -13 0 -7 8 -22 18 -33 10 -10
29 -39 44 -64 14 -25 38 -58 53 -75 35 -40 85 -111 85 -122 0 -5 5 -14 12 -21
15 -15 71 -113 99 -174 12 -27 27 -48 33 -48 6 0 56 20 112 44 161 68 311 166
423 275 l50 49 -23 59 c-66 167 -179 439 -215 517 -34 72 -44 87 -59 81 -9 -3
-30 -8 -47 -11 -31 -4 -28 -3 43 22 26 10 42 22 42 32 0 28 -182 476 -198 490
-20 15 -159 14 -267 -3z"/>
<path d="M940 9973 c-19 -22 -28 -25 -71 -21 -46 5 -54 2 -98 -33 -26 -21 -60
-43 -75 -48 -31 -12 -32 -25 -6 -86 20 -46 40 -53 40 -14 0 30 58 106 89 117
14 5 42 15 61 22 19 7 52 14 73 15 46 3 51 7 43 38 -9 36 -30 39 -56 10z"/>
<path d="M1085 9670 c-17 -19 -20 -40 -6 -40 13 0 -7 -60 -28 -84 -20 -23
-116 -66 -148 -66 -35 0 -61 17 -84 53 l-21 32 7 -30 c12 -59 100 -242 175
-365 7 -13 23 -54 56 -145 4 -11 6 -27 5 -36 -1 -9 7 -41 19 -70 22 -61 25
-73 10 -64 -5 3 -10 1 -10 -4 0 -15 17 -14 70 3 25 8 73 22 108 32 34 9 62 18
62 19 0 0 -9 42 -20 92 -11 50 -23 130 -26 177 -4 47 -10 86 -13 86 -11 0 -96
-28 -164 -54 -81 -31 -80 -31 -65 -5 11 18 10 23 -6 33 -45 27 -63 47 -85 91
-19 37 -22 53 -14 78 9 33 26 42 148 82 112 36 126 39 137 24 15 -22 0 26 -33
107 -30 73 -46 85 -74 54z"/>
<path d="M8375 8924 c-22 -20 -62 -47 -90 -61 -27 -14 -66 -33 -85 -44 -19
-10 -50 -18 -67 -19 -18 0 -33 -4 -33 -10 0 -8 -42 -31 -80 -43 -11 -3 -8 -8
10 -15 25 -11 25 -11 -7 -11 -18 -1 -33 -5 -33 -10 0 -4 -16 -11 -36 -14 -20
-3 -50 -17 -67 -30 -36 -26 -59 -36 -167 -67 -41 -12 -83 -26 -92 -30 -12 -7
-25 0 -52 30 -20 22 -36 44 -36 50 0 18 -46 59 -58 51 -16 -10 -27 -74 -17
-98 11 -26 6 -66 -11 -83 -13 -13 -15 -13 -12 0 2 9 -6 16 -19 18 -13 2 -23 8
-23 13 0 5 -8 9 -18 9 -10 0 -27 7 -38 15 -27 21 -30 19 -59 -22 -27 -41 -32
-87 -13 -128 10 -22 9 -28 -3 -36 -12 -8 -10 -13 10 -29 l23 -20 -33 0 -34 -1
28 -22 c15 -13 27 -28 27 -35 0 -7 12 -18 28 -24 l27 -11 -38 -8 c-24 -6 -46
-5 -57 1 -24 13 -63 13 -55 0 3 -6 -4 -10 -17 -10 l-23 -1 25 -14 c14 -8 21
-14 16 -15 -5 0 -2 -8 7 -18 10 -10 14 -22 10 -25 -3 -4 14 -7 39 -7 25 0 73
-3 108 -7 53 -5 60 -8 46 -18 -9 -7 -16 -17 -14 -21 4 -17 -34 -84 -60 -104
-15 -12 -19 -20 -10 -20 8 0 19 5 26 12 9 9 12 6 12 -13 0 -17 -10 -31 -32
-44 -26 -15 -29 -20 -15 -23 25 -5 21 -19 -8 -26 -29 -7 -34 -26 -7 -26 9 -1
2 -7 -17 -16 -31 -13 -33 -16 -17 -27 16 -12 14 -14 -23 -26 -39 -11 -48 -31
-15 -31 8 0 12 -4 9 -10 -3 -5 -18 -10 -33 -10 l-27 -1 23 -12 23 -13 -26 -12
c-14 -7 -38 -10 -53 -6 -26 5 -26 5 -8 -10 27 -22 68 -20 99 4 14 11 31 19 38
18 14 -3 44 48 134 232 37 74 73 146 80 160 61 111 74 143 85 213 14 86 18 90
145 173 33 21 62 42 63 47 2 4 8 7 13 7 5 0 51 23 101 51 51 29 136 74 188
102 129 68 246 146 299 200 54 56 51 79 -4 31z"/>
<path d="M13780 8487 c0 -3 78 -69 173 -148 94 -79 228 -197 296 -264 68 -66
120 -113 115 -104 -28 52 -276 311 -364 381 -25 20 -70 50 -100 68 -30 18 -70
41 -87 52 -18 11 -33 17 -33 15z"/>
<path d="M3994 8179 c-76 -62 -246 -168 -357 -222 -207 -102 -440 -175 -630
-198 -148 -17 -137 -12 -137 -72 0 -117 27 -154 158 -219 48 -24 89 -46 90
-50 2 -5 12 -8 22 -8 19 0 47 -27 37 -36 -12 -12 60 -134 78 -134 5 0 18 -9
29 -19 12 -11 30 -21 41 -23 11 -1 30 -17 42 -33 l23 -30 112 7 c131 9 506 34
755 52 95 7 175 15 178 17 3 3 -6 32 -20 65 -13 32 -40 103 -60 158 -20 54
-46 115 -59 135 -12 20 -35 78 -49 130 -15 52 -31 99 -35 105 -5 6 -21 45 -36
86 -15 41 -48 125 -72 186 -24 62 -44 117 -44 123 0 20 -26 12 -66 -20z"/>
<path d="M9856 8053 c-32 -43 -51 -172 -55 -363 -2 -96 -6 -179 -9 -184 -5
-10 37 -2 78 15 24 9 27 18 38 102 22 168 8 444 -23 453 -5 2 -19 -8 -29 -23z"/>
<path d="M8834 6965 c6 -17 29 -191 47 -362 6 -62 14 -113 17 -113 6 0 246 71
250 74 1 2 -43 61 -99 132 -55 71 -125 164 -156 207 -52 74 -72 94 -59 62z"/>
<path d="M9866 6822 c-11 -2 -15 -9 -12 -19 3 -8 -1 -53 -10 -101 -9 -48 -18
-108 -21 -133 -5 -45 -5 -46 27 -53 98 -19 258 2 348 45 67 33 92 65 92 118 0
42 -51 98 -101 111 -44 12 -296 37 -323 32z"/>
<path d="M4598 6585 c-20 -7 -38 -11 -41 -9 -5 6 -270 -29 -399 -52 l-86 -16
11 -26 c20 -43 41 -72 54 -72 7 0 22 10 34 23 20 20 21 21 16 2 -10 -39 -32
-90 -40 -96 -5 -3 -9 -9 -8 -12 0 -10 -31 -81 -38 -87 -13 -10 -31 -62 -25
-71 3 -6 0 -17 -7 -25 -15 -18 -14 -15 -29 -103 -6 -36 -12 -67 -14 -70 -2 -3
-1 -14 3 -24 5 -14 47 14 242 165 130 101 254 196 277 212 23 16 42 33 42 38
0 5 4 7 9 4 4 -3 19 6 32 20 13 14 39 34 57 46 29 18 32 24 26 52 -3 17 -13
39 -21 48 -8 9 -12 21 -9 26 11 18 -6 42 -28 41 -11 0 -37 -6 -58 -14z"/>
<path d="M12770 5950 c0 -14 51 -143 62 -155 6 -6 11 -6 16 0 4 6 19 11 35 12
15 0 34 6 42 13 23 19 19 73 -8 98 -27 26 -54 28 -85 6 -21 -14 -23 -14 -32
10 -9 25 -30 36 -30 16z"/>
<path d="M4855 5689 c-193 -164 -460 -396 -535 -463 -113 -103 -115 -106 -80
-128 28 -18 25 -28 -7 -22 -24 5 -25 3 -12 -12 17 -20 106 -64 132 -64 10 0
15 -4 12 -10 -6 -9 6 -14 30 -11 6 0 21 -8 35 -19 35 -27 10 -26 -80 5 -40 14
-76 23 -78 20 -3 -2 24 -18 59 -34 62 -29 152 -49 234 -52 30 -2 33 -3 13 -6
-16 -2 -28 -8 -28 -12 0 -10 37 -43 85 -75 22 -14 36 -26 33 -26 -10 0 -102
43 -108 51 -3 3 -25 9 -50 12 -42 6 -40 3 45 -37 86 -41 92 -46 128 -106 20
-35 37 -71 37 -81 0 -11 4 -19 8 -19 10 0 72 -117 72 -136 0 -19 11 -18 84 13
41 16 63 30 58 37 -7 11 -8 17 -11 39 -1 9 -3 9 -10 -1 -7 -11 -9 -11 -14 2
-7 19 -3 19 41 7 26 -8 32 -7 32 5 0 11 6 13 23 8 31 -9 34 -14 17 -24 -30
-19 10 -10 69 16 69 30 85 25 97 -29 3 -17 22 -67 41 -111 19 -45 66 -157 104
-249 38 -93 82 -196 98 -230 15 -34 63 -146 106 -249 77 -186 77 -187 103
-177 60 23 198 83 205 89 5 4 -30 102 -78 216 -47 115 -93 236 -102 269 -25
101 -34 127 -71 205 -41 89 -92 212 -92 223 0 18 -43 107 -52 107 -18 0 -38
29 -38 57 0 15 -14 66 -31 113 -17 47 -31 96 -31 110 1 29 -36 130 -48 130
-11 0 -33 57 -26 68 7 11 -33 114 -49 124 -5 4 -19 5 -30 2 -14 -4 -16 -3 -7
4 11 7 3 37 -37 141 -28 73 -49 137 -46 142 9 13 -46 158 -64 172 -9 7 -25 33
-35 60 -10 26 -18 47 -19 47 -1 0 -60 -50 -132 -111z"/>
<path d="M11868 5633 c-25 -30 -27 -49 -7 -82 16 -26 25 -31 58 -31 30 0 44 6
55 22 21 30 20 50 -5 82 -25 31 -77 36 -101 9z"/>
<path d="M3361 5601 c-13 -9 -12 -24 4 -64 6 -15 4 -17 -16 -12 -82 19 -126
-114 -53 -161 23 -16 26 -15 44 1 20 18 20 18 -2 29 -32 16 -37 70 -8 86 27
14 70 -10 70 -40 0 -25 12 -25 34 -1 16 17 15 23 -12 92 -31 76 -38 84 -61 70z"/>
<path d="M11733 5600 c-46 -19 -55 -69 -18 -105 31 -32 69 -32 101 0 30 30 26
58 -12 93 -27 24 -37 26 -71 12z"/>
<path d="M2908 5433 c-20 -5 -22 -35 -8 -118 4 -27 7 -51 5 -53 -1 -1 -22 27
-46 62 -43 64 -60 75 -88 57 -11 -7 -12 -23 -4 -87 6 -44 9 -80 8 -82 -1 -1
-24 29 -51 68 -39 58 -51 69 -68 64 -12 -4 -22 -8 -24 -9 -2 -2 29 -47 69
-100 48 -64 77 -94 86 -90 8 3 19 5 25 5 7 0 9 27 5 82 l-7 81 33 -43 c64 -85
60 -82 90 -74 23 5 27 11 23 28 -2 11 -8 63 -12 114 -3 51 -9 94 -13 95 -3 2
-14 2 -23 0z"/>
<path d="M3033 5421 c-55 -34 -56 -100 0 -147 25 -21 38 -25 66 -20 37 5 81
45 81 72 0 20 -8 18 -51 -12 -32 -22 -40 -24 -61 -13 -22 12 -20 13 32 31 30
10 61 20 67 23 20 7 -6 54 -38 71 -37 19 -58 18 -96 -5z"/>
<path d="M11980 5350 c-27 -27 -25 -66 5 -95 27 -28 33 -29 72 -14 33 12 43
26 43 60 0 57 -79 90 -120 49z"/>
<path d="M11826 5307 c-23 -17 -24 -72 -1 -97 24 -26 79 -26 105 0 26 26 25
51 -1 84 -23 29 -72 36 -103 13z"/>
<path d="M8415 4994 c-59 -14 -165 -48 -161 -51 2 -2 35 5 72 16 38 10 83 22
100 25 29 5 32 3 31 -22 -2 -38 43 -152 59 -152 8 0 16 -11 20 -25 3 -14 10
-25 15 -25 5 0 9 -6 9 -13 0 -15 45 -56 83 -76 15 -8 27 -19 27 -25 0 -7 9
-18 21 -26 11 -8 30 -32 42 -53 11 -21 26 -36 32 -33 6 2 26 -33 45 -80 18
-46 35 -82 37 -80 2 2 -41 115 -95 252 -106 264 -136 314 -206 348 -38 18 -99
27 -131 20z"/>
<path d="M9480 4976 c-49 -16 -74 -36 -94 -75 -23 -43 -15 -81 24 -129 17 -20
26 -38 21 -40 -14 -5 -1 -32 15 -32 8 0 14 -4 14 -10 0 -16 3 -21 38 -58 20
-22 32 -46 32 -63 0 -15 4 -30 9 -33 5 -4 1 -29 -10 -58 -24 -66 -24 -67 2
-34 11 14 27 26 35 26 8 0 14 5 14 11 0 5 -5 7 -11 3 -7 -4 -10 4 -8 22 2 16
0 36 -5 44 -4 8 2 4 13 -9 12 -12 19 -26 17 -30 -3 -4 12 -8 33 -9 40 -3 92
12 89 25 -1 5 4 26 10 48 13 47 2 175 -22 240 -8 22 -15 48 -16 57 0 32 -35
77 -76 97 -45 23 -72 25 -124 7z m169 -103 c12 -14 24 -38 28 -51 3 -14 11
-36 18 -48 12 -24 12 -42 0 -82 -7 -20 -12 -22 -44 -16 -32 6 -34 5 -18 -8 17
-13 17 -14 -1 -15 -20 -2 -23 11 -8 35 11 18 4 22 -22 15 -15 -4 -21 -11 -18
-22 3 -9 1 -23 -4 -31 -8 -12 -11 -12 -28 3 -10 9 -23 17 -28 17 -5 0 -20 9
-34 19 -24 19 -24 20 -6 40 10 11 24 17 32 14 17 -6 19 13 2 21 -7 3 -2 3 12
0 14 -4 28 -12 32 -18 9 -13 10 -3 2 18 -8 21 -43 20 -67 -1 -18 -17 -19 -17
-16 2 2 10 15 22 29 26 l25 7 -26 1 c-32 1 -54 -22 -45 -46 5 -12 4 -14 -2 -8
-6 6 -13 28 -17 51 l-6 40 43 13 c24 7 50 19 58 26 8 7 29 15 45 18 17 2 33 5
37 6 4 0 16 -11 27 -26z"/>
<path d="M7376 4693 c-43 -14 -76 -31 -84 -43 -7 -12 -8 -20 -2 -20 5 0 10 -7
10 -15 0 -8 -4 -15 -10 -15 -5 0 -10 -7 -10 -15 0 -8 5 -15 11 -15 5 0 8 -4 5
-8 -9 -15 41 -35 71 -28 21 5 24 4 13 -4 -8 -5 -27 -10 -42 -10 -16 0 -28 -4
-28 -9 0 -5 9 -7 19 -4 11 3 28 0 38 -7 16 -10 15 -10 -7 -6 -22 5 -21 4 5 -9
l30 -14 -49 -1 c-67 0 -55 -12 24 -24 14 -2 28 -4 33 -5 4 0 7 -5 7 -11 0 -5
-15 -10 -32 -10 -18 0 -40 -5 -48 -11 -12 -9 -11 -10 7 -6 12 3 37 1 55 -3
l33 -8 -35 -3 c-19 -1 -45 -1 -57 0 -13 1 -23 -3 -23 -9 0 -5 19 -11 43 -12
60 -2 65 -2 73 -11 4 -4 -5 -7 -20 -7 -15 0 -25 -4 -22 -8 2 -4 -7 -7 -22 -6
-39 2 -41 5 -7 14 27 7 26 8 -15 8 -25 0 -39 -2 -32 -5 6 -2 12 -9 12 -14 0
-5 -9 -4 -19 3 -21 13 -23 28 -6 40 6 4 2 8 -7 8 -12 0 -18 -8 -19 -22 0 -13
-3 -17 -6 -10 -2 6 -12 12 -21 12 -10 0 -1 10 21 22 20 12 37 26 37 31 0 4 -4
6 -9 2 -5 -3 -12 -1 -16 5 -3 5 -12 10 -18 10 -7 0 -4 -7 7 -15 18 -13 18 -14
-2 -12 -11 0 -18 5 -16 9 3 4 0 8 -7 8 -7 0 -2 12 12 26 l24 27 -25 -8 c-38
-11 -90 -13 -90 -3 0 5 8 8 18 6 9 -1 17 2 17 7 0 5 -8 8 -17 7 -23 -4 -25 33
-2 42 8 3 12 11 9 16 -4 6 -1 18 6 26 6 8 9 17 5 21 -3 3 1 15 11 25 28 31 -4
20 -37 -13 -122 -122 -110 -345 25 -452 20 -16 34 -31 31 -35 -3 -3 4 -10 17
-16 12 -7 28 -24 35 -39 7 -15 19 -27 27 -27 7 0 26 -15 42 -32 16 -18 46 -48
66 -65 33 -29 45 -33 95 -33 66 0 94 18 118 76 20 48 31 49 54 5 24 -48 25
-70 5 -77 -8 -4 -15 -12 -15 -20 0 -17 5 -17 31 -4 12 7 19 7 19 1 0 -6 -18
-15 -40 -21 -22 -6 -38 -15 -34 -21 3 -5 14 -7 25 -4 22 7 28 -20 7 -28 -7 -3
11 -6 40 -6 28 -1 52 -5 52 -10 0 -16 -74 -48 -105 -45 l-30 4 27 -13 c27 -12
27 -12 11 -45 l-16 -34 -24 39 c-13 21 -21 43 -19 49 2 6 -14 22 -37 34 -102
56 -216 151 -243 203 -8 15 -19 25 -24 22 -9 -6 2 -33 27 -65 6 -8 23 -37 38
-65 26 -47 28 -59 31 -193 2 -78 6 -147 9 -152 4 -6 15 -10 25 -10 10 0 22 -4
25 -10 4 -6 -1 -7 -12 -4 -15 6 -15 4 2 -9 11 -9 26 -17 33 -17 14 0 16 -38 3
-59 -7 -10 -27 -12 -92 -7 -46 4 -100 10 -119 14 -37 9 -39 15 -25 80 l8 33
-30 -18 c-56 -34 -123 -88 -128 -104 -3 -8 4 -51 16 -95 12 -43 22 -90 23
-104 2 -14 8 -42 15 -63 12 -35 10 -46 -24 -144 -28 -82 -35 -115 -31 -147 4
-23 10 -71 15 -108 11 -83 62 -160 125 -189 51 -23 151 -25 203 -4 35 15 81
65 111 121 10 18 24 95 25 131 1 20 14 5 45 -50 42 -73 60 -168 61 -309 1 -46
6 -71 16 -82 9 -8 23 -46 32 -83 9 -37 19 -71 22 -75 3 -4 85 17 181 46 855
262 1390 430 1415 446 46 28 78 92 78 154 -1 72 -111 344 -189 466 -190 294
-323 468 -493 643 -89 93 -222 197 -249 197 -19 0 -88 -21 -127 -39 -30 -14
-140 -48 -235 -72 -66 -16 -102 -20 -162 -15 l-77 5 25 -36 c13 -20 24 -41 24
-47 0 -6 -5 -3 -11 7 -10 17 -12 17 -25 -8 -8 -15 -14 -33 -14 -41 0 -7 -9
-12 -20 -11 -17 1 -20 9 -21 47 -2 56 0 91 7 157 5 44 1 62 -23 115 -16 35
-30 78 -31 96 -4 54 -59 185 -98 230 -41 48 -122 104 -177 122 -20 6 -35 15
-33 18 9 14 -59 6 -128 -15z m277 -403 c36 -42 41 -65 22 -94 -18 -26 -12 -51
8 -39 8 4 7 1 -1 -9 -7 -9 -23 -19 -36 -22 -25 -6 -44 -38 -27 -44 6 -2 9 -8
6 -12 -12 -20 -31 2 -27 30 5 35 -1 37 -27 11 -13 -13 -41 -22 -81 -27 -34 -4
-67 -13 -75 -20 -7 -8 -24 -14 -36 -14 -29 0 -88 45 -103 79 -6 14 -24 45 -39
69 -27 42 -28 62 -3 62 6 0 17 5 23 11 6 6 43 11 82 11 39 0 96 6 127 15 31 8
62 12 69 10 6 -3 18 -1 26 4 29 18 67 10 92 -21z m-47 -265 c4 -9 1 -28 -5
-43 -9 -21 -23 -31 -57 -40 -71 -19 -101 -16 -120 14 -22 33 -13 41 72 64 87
23 103 24 110 5z m339 -200 c-3 -25 -3 -45 0 -45 20 0 45 24 45 44 0 31 10 39
29 22 9 -8 25 -16 36 -18 27 -5 47 -104 48 -248 1 -109 -1 -139 -18 -202 -10
-39 -20 -35 -45 18 -13 25 -40 66 -61 91 -25 28 -39 54 -39 71 0 17 -14 43
-40 72 -22 25 -39 47 -37 50 1 3 9 22 17 43 8 20 18 37 22 37 4 0 8 5 8 10 0
6 -12 10 -27 11 -25 0 -26 1 -8 9 29 12 65 48 65 65 0 8 2 15 5 15 3 0 3 -20
0 -45z m-167 -112 c6 -6 12 -18 12 -26 0 -17 42 -47 65 -47 18 0 51 -51 65
-102 6 -20 39 -76 74 -125 56 -77 62 -90 49 -100 -9 -7 -20 -10 -26 -6 -6 3
-7 1 -3 -5 4 -7 1 -12 -7 -12 -8 0 -17 -7 -21 -15 -9 -24 -36 -18 -36 8 -1 21
-1 22 -15 3 -14 -18 -20 -15 -16 8 1 5 -4 4 -12 -2 -33 -28 -173 93 -217 186
-7 15 -16 35 -21 44 -7 14 -5 16 9 12 14 -5 15 -4 2 5 -8 6 -25 11 -37 11 -12
0 -24 3 -27 8 -2 4 14 6 37 5 40 -2 41 -2 15 9 -33 14 -37 38 -7 38 11 0 17
-4 14 -10 -3 -5 -2 -10 4 -10 13 0 24 19 27 48 4 33 8 36 36 22 19 -9 18 -7
-4 10 -16 12 -28 29 -28 39 0 20 48 23 68 4z"/>
<path d="M10820 4173 c-14 -2 -230 -67 -480 -143 -250 -75 -527 -159 -615
-185 -240 -70 -276 -90 -311 -172 -31 -72 -71 39 488 -1366 105 -263 201 -491
214 -507 37 -43 103 -71 171 -72 48 0 130 22 478 131 231 73 421 136 423 141
2 5 9 7 15 4 23 -8 447 133 474 157 35 32 63 96 63 143 0 55 -680 1758 -718
1800 -45 48 -140 81 -202 69z m-984 -688 c14 -19 24 -19 24 0 0 27 60 -12 75
-49 9 -20 26 -38 44 -45 37 -16 97 -69 88 -78 -4 -4 -13 -1 -19 5 -22 22 -29
12 -13 -18 9 -17 20 -28 26 -24 6 3 19 -2 30 -12 10 -9 19 -12 19 -6 0 6 -4
14 -10 17 -5 3 -10 21 -10 40 0 19 -4 37 -10 40 -13 8 -13 42 -1 50 6 3 28 3
50 -1 l41 -6 -38 -31 -37 -30 35 8 c65 14 122 11 157 -7 18 -10 40 -18 48 -18
8 0 23 -10 35 -22 11 -12 20 -17 20 -11 0 20 44 10 73 -16 15 -13 27 -28 27
-32 0 -3 -35 -9 -77 -12 -79 -6 -314 -39 -368 -52 -16 -4 -42 -14 -57 -21 -19
-10 -34 -11 -52 -4 -29 11 -26 31 8 49 32 18 81 81 62 81 -8 0 -17 -9 -21 -19
-9 -28 -32 -33 -65 -13 -24 15 -27 21 -17 31 10 11 8 12 -10 7 -18 -6 -24 -2
-29 18 -8 32 -22 34 -19 3 2 -16 -3 -23 -16 -24 -10 -1 -19 2 -19 7 0 5 -13
17 -30 27 -42 24 -42 56 -1 33 13 -6 24 -5 39 6 22 15 30 44 12 44 -5 0 -10
-4 -10 -9 0 -6 -9 -9 -21 -8 -15 1 -19 6 -15 22 4 15 -1 13 -19 -10 -14 -16
-25 -25 -25 -20 0 6 -14 18 -30 27 -17 9 -30 23 -30 31 0 22 38 65 63 70 34 8
81 -2 93 -18z m1220 -200 c27 -8 65 -15 84 -15 19 -1 49 -7 65 -15 30 -15 30
-15 -20 -10 -41 5 -47 3 -35 -7 24 -20 70 -83 70 -96 0 -23 -19 -11 -47 28
-39 56 -46 50 -17 -16 14 -31 23 -59 20 -62 -3 -2 -39 29 -79 71 -76 78 -98
87 -128 51 -19 -23 -46 -17 -53 12 -8 32 6 51 48 63 42 12 37 13 92 -4z"/>
<path d="M4635 4113 c-3 -15 -9 -40 -14 -55 -7 -20 -5 -28 7 -33 8 -3 20 0 25
7 6 9 7 8 3 -5 -3 -10 -6 -23 -6 -28 0 -6 -5 -7 -10 -4 -13 8 -54 -4 -45 -13
4 -4 17 -7 28 -7 15 0 22 -6 22 -20 0 -11 5 -23 10 -27 6 -5 5 -11 -4 -17 -8
-5 -10 -14 -6 -21 6 -9 4 -11 -5 -5 -10 6 -11 2 -7 -17 6 -21 3 -27 -14 -31
-31 -8 -45 1 -57 36 -8 25 -10 27 -11 10 -1 -28 58 -102 82 -103 4 0 15 15 23
33 l15 32 -5 -36 c-4 -30 0 -41 23 -63 24 -23 30 -25 63 -14 32 10 39 18 57
68 l21 57 -38 84 c-22 46 -47 105 -57 131 -12 32 -24 48 -40 52 -13 3 -30 9
-39 12 -11 4 -17 -2 -21 -23z"/>
<path d="M5919 2855 c-107 -45 -259 -110 -337 -145 l-142 -62 0 -37 c-1 -20
-1 -79 -2 -131 -1 -90 0 -95 20 -98 18 -3 22 -10 22 -36 0 -34 38 -138 52
-144 4 -2 8 -8 8 -14 0 -6 11 -21 25 -34 14 -13 25 -28 25 -35 0 -17 32 -7
155 49 146 66 321 124 475 157 68 14 125 27 126 28 4 4 -216 569 -225 578 -3
4 -94 -30 -202 -76z"/>
<path d="M8843 2279 c-34 -13 -63 -34 -82 -58 -40 -50 -49 -77 -44 -129 4 -47
39 -132 55 -132 6 0 7 -7 4 -16 -8 -20 17 -67 50 -93 29 -23 74 -83 91 -122 8
-20 8 -30 0 -38 -20 -20 -16 -42 17 -105 l33 -61 59 3 c62 3 144 26 181 49 13
9 24 29 28 53 4 21 13 46 20 57 13 17 14 16 16 -12 1 -16 1 -33 0 -37 -2 -16
19 -7 29 12 9 16 6 29 -15 64 -14 24 -32 50 -40 56 -8 7 -17 28 -20 49 -3 20
-11 65 -17 101 -7 36 -11 68 -10 73 1 4 -3 7 -9 7 -6 0 -9 -6 -6 -14 7 -18
-13 -26 -69 -26 -48 0 -59 -16 -19 -26 35 -9 32 -27 -3 -19 -20 4 -33 1 -41
-9 -13 -16 -91 -20 -91 -5 0 5 6 9 13 9 11 0 12 11 7 45 -7 47 5 71 22 42 13
-25 38 -47 51 -47 7 1 6 6 -4 13 -18 15 -32 47 -19 47 5 0 12 -4 15 -10 10
-17 54 -11 75 10 17 17 20 17 20 4 0 -13 3 -14 13 -5 8 6 16 8 20 5 9 -9 27
33 21 50 -3 8 -12 17 -20 20 -8 3 -14 14 -14 25 0 51 -57 134 -110 161 -59 30
-145 34 -207 9z m124 -68 c11 -1 123 -104 123 -114 0 -3 -14 -8 -31 -12 -17
-4 -42 -20 -56 -36 -23 -25 -31 -28 -80 -26 l-54 2 7 37 c4 28 2 39 -9 43 -20
8 -19 63 1 75 9 5 13 10 7 10 -5 0 1 7 15 15 14 7 34 12 45 10 11 -2 25 -4 32
-4z"/>
<path d="M4288 1775 c-2 -3 -32 -7 -66 -9 -47 -4 -73 -13 -115 -40 -57 -36
-127 -122 -127 -155 0 -11 -7 -48 -16 -82 -23 -88 -14 -182 24 -263 18 -39 26
-68 21 -73 -6 -6 3 -23 21 -43 31 -35 41 -62 15 -40 -26 22 -30 1 -5 -25 13
-14 25 -23 28 -20 3 2 13 0 24 -6 11 -6 17 -13 14 -16 -3 -4 -1 -12 5 -20 6
-7 8 -13 4 -13 -5 0 -1 -8 8 -17 8 -10 18 -31 21 -48 16 -85 30 -125 47 -130
10 -4 18 -10 16 -14 -1 -4 12 -20 29 -34 17 -15 37 -40 44 -57 7 -16 17 -30
22 -30 13 0 68 -62 68 -76 0 -7 20 -30 45 -52 25 -22 45 -45 45 -52 0 -7 11
-25 25 -42 23 -27 30 -24 26 10 -1 6 3 12 9 12 6 0 9 -4 6 -8 -2 -4 -1 -14 4
-21 12 -20 40 -6 40 19 0 18 4 20 23 14 12 -4 39 -7 59 -6 36 1 38 -1 43 -36
3 -20 10 -61 16 -89 9 -46 13 -52 28 -44 15 9 18 5 18 -21 0 -29 -1 -30 -15
-12 -14 18 -14 18 -8 1 3 -10 6 -21 6 -23 0 -2 6 -4 14 -4 9 0 16 12 18 28 2
17 8 26 18 24 10 -1 9 3 -5 14 -20 16 -20 16 3 9 13 -4 22 -2 22 4 0 6 -3 10
-7 9 -16 -3 -43 14 -37 23 3 6 1 16 -6 24 -7 8 -7 15 -1 19 6 4 8 13 4 21 -3
8 0 15 5 15 6 0 9 -14 7 -31 -3 -23 -1 -30 9 -26 22 9 55 -29 49 -55 -3 -15 5
-8 26 22 31 44 44 50 17 7 -8 -12 -17 -33 -21 -47 -7 -24 -7 -24 9 -5 14 19
15 18 12 -23 -3 -35 -1 -40 10 -31 16 13 19 33 4 24 -14 -9 -13 1 5 35 14 27
14 29 -2 24 -11 -4 -14 -3 -7 3 6 4 16 17 23 28 10 16 11 17 7 2 -4 -12 -2
-16 6 -11 7 5 9 2 6 -8 -4 -8 2 -20 13 -26 10 -7 19 -10 19 -7 0 20 -106 163
-150 202 -29 25 -21 39 24 47 55 10 60 24 48 123 -7 48 -12 156 -13 240 -1
114 -4 155 -14 163 -8 6 -11 18 -8 26 3 8 0 14 -6 14 -6 0 -11 8 -11 18 0 10
-5 23 -12 30 -7 7 -8 12 -2 12 5 0 3 4 -5 9 -11 7 -15 35 -17 114 -2 126 -8
142 -41 101 -14 -18 -23 -23 -23 -14 0 24 -37 41 -73 35 -25 -5 -35 -2 -43 13
-11 17 -9 18 40 11 28 -3 53 -5 55 -3 2 2 -12 36 -32 76 -52 106 -119 176
-209 220 -73 35 -173 70 -180 63z m-102 -168 c11 -11 26 -8 19 3 -3 6 3 10 14
10 12 0 21 -4 21 -8 0 -11 61 -32 73 -25 6 3 7 2 4 -4 -4 -6 5 -15 19 -22 15
-6 22 -16 18 -23 -4 -7 -3 -8 4 -4 7 4 12 3 12 -2 0 -5 9 -12 21 -15 12 -3 18
-10 14 -16 -3 -6 -2 -11 3 -11 18 0 54 -39 50 -56 -2 -10 -21 -27 -42 -38 -22
-12 -43 -31 -47 -44 l-9 -23 26 20 c42 33 45 24 6 -16 -21 -21 -41 -36 -46
-35 -5 2 -3 -5 5 -14 9 -12 10 -15 1 -10 -12 7 -82 -13 -82 -24 0 -3 -22 -3
-48 -2 -44 3 -61 -1 -137 -37 -5 -2 -4 3 4 12 12 15 11 17 -2 17 -10 0 -20
-13 -26 -32 -5 -18 -10 -27 -10 -20 -1 8 -6 10 -13 6 -10 -6 -10 -4 0 7 14 15
17 63 3 55 -9 -6 -24 30 -21 52 0 8 -4 20 -10 27 -7 8 -9 23 -5 34 3 11 8 30
10 42 3 12 10 26 16 30 8 4 5 10 -7 18 -18 10 -18 10 -1 11 10 0 15 5 12 11
-8 13 3 61 13 55 9 -5 33 20 25 28 -4 3 -1 6 5 6 7 0 12 6 12 14 0 9 9 12 28
10 15 -2 21 -1 13 2 -9 5 -10 8 -2 14 14 8 48 6 57 -3z m349 -349 c-4 -9 -21
-20 -38 -26 l-32 -10 42 -1 c23 -1 53 3 68 9 21 8 24 13 16 29 -9 15 -7 18 12
17 17 -1 21 -7 22 -36 0 -28 -6 -38 -34 -57 -49 -33 -93 -39 -137 -17 -45 23
-67 53 -54 74 8 13 11 13 19 1 7 -11 11 -9 21 9 9 16 15 19 23 11 17 -17 54
-13 61 5 4 9 9 15 11 12 3 -3 3 -12 0 -20z m-162 -51 c14 -19 55 -53 91 -77
36 -24 66 -49 66 -55 0 -13 -42 -35 -65 -35 -8 0 -18 -7 -23 -16 -5 -9 -31
-20 -57 -25 -58 -11 -65 -17 -42 -34 17 -12 16 -14 -10 -36 -16 -13 -36 -35
-45 -47 -16 -24 -16 -24 -23 -3 -3 12 -4 36 0 54 l6 32 -17 -29 c-13 -24 -20
-27 -45 -22 -32 6 -45 16 -71 58 l-17 26 35 -10 c27 -7 45 -6 72 5 21 8 42 12
49 10 23 -8 37 42 40 137 1 52 2 96 3 98 0 1 6 2 14 2 7 0 25 -15 39 -33z
m278 10 c-6 -8 -8 -16 -5 -19 3 -4 6 -52 8 -107 l2 -101 -32 0 c-17 0 -45 3
-62 6 -27 6 -30 9 -21 26 12 23 3 56 -24 86 -20 22 -20 22 0 22 25 0 98 48
119 78 8 12 18 22 21 22 3 0 0 -6 -6 -13z m-357 -33 c10 -25 7 -91 -5 -118 -6
-13 -31 -35 -54 -47 l-43 -23 -37 19 c-20 11 -39 24 -42 29 -4 5 0 6 7 1 10
-6 12 -3 8 13 -5 16 0 23 22 31 16 5 31 7 34 4 3 -4 6 -1 6 5 0 7 -4 12 -10
12 -5 0 -10 4 -10 10 0 5 10 9 22 7 15 -1 26 5 33 21 5 12 18 22 27 22 10 0
17 3 17 8 -4 26 15 31 25 6z m300 -283 c18 -1 18 -3 -5 -27 -48 -53 -134 -77
-182 -53 -30 16 -19 5 26 -25 21 -14 48 -26 60 -26 29 0 57 -19 39 -27 -6 -2
-10 -9 -6 -14 3 -5 -11 -9 -31 -9 -22 0 -38 6 -41 15 -4 8 -14 15 -24 15 -23
0 -70 55 -70 81 0 11 8 22 18 26 9 3 24 12 32 19 23 19 81 32 125 29 22 -2 49
-4 59 -4z"/>
<path d="M6405 1279 c6 -9 2 -11 -13 -7 -18 5 -20 3 -13 -11 7 -13 5 -17 -9
-17 -10 0 -16 4 -14 8 3 4 -2 5 -10 2 -9 -3 -14 -9 -11 -14 2 -4 -7 -5 -20 -2
-15 2 -25 0 -25 -7 0 -7 -4 -10 -9 -6 -6 3 -14 -2 -19 -11 -6 -11 -16 -15 -26
-11 -11 4 -15 3 -11 -4 7 -10 -52 -69 -68 -69 -5 0 -5 -5 -2 -11 4 -6 -1 -17
-11 -25 -11 -9 -12 -12 -4 -8 8 4 3 -6 -11 -22 -14 -16 -24 -39 -24 -51 1 -13
-1 -23 -5 -23 -8 0 -12 -22 -12 -80 0 -53 59 -208 108 -285 18 -27 55 -74 83
-104 28 -30 51 -57 51 -60 0 -6 54 -70 123 -145 20 -23 40 -51 43 -63 3 -13
12 -23 20 -23 23 0 549 214 568 231 5 4 4 21 -2 38 -8 23 -8 31 1 31 8 1 7 5
-3 13 -8 7 -16 23 -18 37 -1 14 -9 30 -16 35 -12 9 -76 147 -76 163 0 3 7 -3
15 -14 13 -17 14 -17 15 -2 0 10 -13 32 -28 50 -16 18 -53 86 -82 152 -30 65
-63 127 -74 138 -25 23 -159 104 -233 142 -33 16 -53 22 -55 14 -3 -7 -14 -5
-36 6 -18 9 -37 14 -42 11 -5 -3 -19 -1 -31 6 -17 9 -20 8 -14 -2z"/>
</g>
</svg>
